<svg viewBox="0 0 92 80" xmlns="http://www.w3.org/2000/svg">
<path fill-rule="evenodd" clip-rule="evenodd" d="M83.4998 32.6583V60.0002C83.4998 63.638 83.4934 65.8652 83.3572 67.5315C83.2938 68.3078 83.2141 68.7775 83.147 69.0627C83.115 69.1983 83.0882 69.2818 83.0721 69.3269C83.0567 69.3703 83.0457 69.3918 83.0457 69.3918C82.6462 70.1758 82.0088 70.8132 81.2248 71.2127C81.2248 71.2127 81.2033 71.2237 81.1599 71.2391C81.1148 71.2552 81.0313 71.282 80.8957 71.3139C80.6105 71.3811 80.1408 71.4608 79.3646 71.5242C77.6982 71.6604 75.471 71.6668 71.8332 71.6668H20.1665C16.5287 71.6668 14.3015 71.6604 12.6351 71.5242C11.8589 71.4608 11.3892 71.3811 11.104 71.3139C10.9683 71.282 10.8849 71.2552 10.8397 71.2391C10.7964 71.2237 10.7749 71.2127 10.7749 71.2127C9.99087 70.8132 9.35345 70.1758 8.95398 69.3918C8.95398 69.3918 8.94302 69.3703 8.92755 69.3269C8.91144 69.2818 8.88467 69.1983 8.85272 69.0627C8.78555 68.7775 8.70589 68.3078 8.64246 67.5315C8.50632 65.8652 8.49984 63.638 8.49984 60.0002V32.6583C8.49984 29.3513 8.50521 27.3269 8.61832 25.8074C8.67103 25.0993 8.73737 24.6675 8.79384 24.4029C8.82073 24.2768 8.84333 24.1988 8.8569 24.1567C8.86375 24.1354 8.86889 24.1214 8.87195 24.1135L8.87709 24.101C9.29336 23.1905 10.0235 22.4604 10.934 22.0441L10.9465 22.0389C10.9544 22.0359 10.9684 22.0307 10.9897 22.0239C11.0318 22.0103 11.1098 21.9877 11.2359 21.9608C11.5005 21.9044 11.9323 21.838 12.6404 21.7853C14.1599 21.6722 16.1843 21.6668 19.4913 21.6668L19.5338 21.6675C19.8055 21.6726 21.1485 21.6978 22.4916 21.3704C23.8378 21.0421 25.105 20.4486 26.2189 19.6246C27.3303 18.8024 28.1708 17.7545 28.3407 17.5426L28.3674 17.5095L31.8214 13.3647C34.3145 10.373 34.6337 10.0946 34.8732 9.92605C35.2722 9.64523 35.7175 9.43668 36.1887 9.30991C36.4715 9.23382 36.8897 9.16683 40.784 9.16683H51.2157C55.11 9.16683 55.5282 9.23382 55.811 9.30991C56.2822 9.43668 56.7275 9.64523 57.1265 9.92605C57.366 10.0946 57.6852 10.373 60.1783 13.3647L63.6323 17.5095L63.659 17.5425C63.8289 17.7544 64.6693 18.8024 65.7808 19.6246C66.8947 20.4486 68.1619 21.0421 69.5081 21.3704C70.8512 21.6978 72.1943 21.6726 72.4659 21.6675L72.5084 21.6668C75.8154 21.6668 77.8398 21.6722 79.3593 21.7853C80.0674 21.838 80.4992 21.9044 80.7638 21.9608C80.8899 21.9877 80.9679 22.0103 81.01 22.0239C81.0313 22.0307 81.0452 22.0359 81.0532 22.0389L81.0656 22.0441C81.9761 22.4604 82.7063 23.1905 83.1226 24.101L83.1277 24.1135C83.1308 24.1214 83.1359 24.1354 83.1428 24.1567C83.1564 24.1988 83.1789 24.2768 83.2058 24.4029C83.2623 24.6675 83.3287 25.0993 83.3814 25.8074C83.4945 27.3269 83.4998 29.3513 83.4998 32.6583ZM0.166504 32.6583C0.166504 26.2938 0.166504 23.1116 1.29826 20.6361C2.54706 17.9046 4.7376 15.7141 7.4691 14.4653C9.94458 13.3335 13.1268 13.3335 19.4913 13.3335C20.0133 13.3335 20.2744 13.3335 20.5176 13.2742C20.7868 13.2086 21.0402 13.0899 21.263 12.925C21.4643 12.7762 21.6314 12.5757 21.9656 12.1746L25.4196 8.0298C27.6239 5.38459 28.7261 4.06199 30.0772 3.11116C31.2743 2.26868 32.6101 1.64303 34.0237 1.26272C35.6191 0.833496 37.3407 0.833496 40.784 0.833496H51.2157C54.659 0.833496 56.3806 0.833496 57.976 1.26272C59.3896 1.64303 60.7254 2.26868 61.9225 3.11116C63.2736 4.06199 64.3758 5.3846 66.5801 8.02981L70.0341 12.1746C70.3683 12.5757 70.5354 12.7762 70.7366 12.925C70.9594 13.0899 71.2129 13.2086 71.4821 13.2742C71.7253 13.3335 71.9863 13.3335 72.5084 13.3335C78.8729 13.3335 82.0551 13.3335 84.5306 14.4653C87.2621 15.7141 89.4526 17.9046 90.7014 20.6361C91.8332 23.1116 91.8332 26.2938 91.8332 32.6583V60.0002C91.8332 67.0008 91.8332 70.5012 90.4708 73.175C89.2723 75.5271 87.3601 77.4393 85.0081 78.6377C82.3342 80.0002 78.8338 80.0002 71.8332 80.0002H20.1665C13.1658 80.0002 9.66552 80.0002 6.99162 78.6377C4.6396 77.4393 2.72734 75.5271 1.52892 73.175C0.166504 70.5012 0.166504 67.0008 0.166504 60.0002V32.6583ZM58.4998 44.5835C58.4998 51.4871 52.9034 57.0835 45.9998 57.0835C39.0963 57.0835 33.4998 51.4871 33.4998 44.5835C33.4998 37.6799 39.0963 32.0835 45.9998 32.0835C52.9034 32.0835 58.4998 37.6799 58.4998 44.5835ZM66.8332 44.5835C66.8332 56.0894 57.5058 65.4168 45.9998 65.4168C34.4939 65.4168 25.1665 56.0894 25.1665 44.5835C25.1665 33.0776 34.4939 23.7502 45.9998 23.7502C57.5058 23.7502 66.8332 33.0776 66.8332 44.5835Z" fill="currentColor"/>
</svg>
