<svg  viewBox="0 0 55 48" xmlns="http://www.w3.org/2000/svg">
<path fill-rule="evenodd" clip-rule="evenodd" d="M50 19.0949V35.5C50 37.6827 49.9961 39.019 49.9144 40.0188C49.8764 40.4846 49.8286 40.7664 49.7883 40.9375C49.7691 41.0189 49.753 41.069 49.7434 41.0961C49.7341 41.1221 49.7275 41.135 49.7275 41.135C49.4878 41.6054 49.1054 41.9878 48.635 42.2275C48.635 42.2275 48.6221 42.2341 48.5961 42.2434C48.569 42.253 48.5189 42.2691 48.4375 42.2883C48.2664 42.3286 47.9846 42.3764 47.5188 42.4144C46.519 42.4961 45.1827 42.5 43 42.5H12C9.8173 42.5 8.48098 42.4961 7.48117 42.4144C7.01542 42.3764 6.73363 42.3286 6.5625 42.2883C6.4811 42.2691 6.43102 42.253 6.40394 42.2434C6.37794 42.2341 6.36502 42.2275 6.36502 42.2275C5.89462 41.9878 5.51217 41.6054 5.27248 41.135C5.27248 41.135 5.26591 41.1221 5.25663 41.0961C5.24696 41.069 5.2309 41.0189 5.21173 40.9375C5.17143 40.7664 5.12363 40.4846 5.08558 40.0188C5.00389 39.019 5 37.6827 5 35.5V19.0949C5 17.1107 5.00322 15.896 5.07109 14.9843C5.10271 14.5595 5.14252 14.3004 5.1764 14.1416C5.19254 14.066 5.2061 14.0192 5.21424 13.9939C5.21835 13.9811 5.22143 13.9728 5.22327 13.968L5.22635 13.9605C5.47611 13.4142 5.91422 12.9761 6.46052 12.7264L6.46801 12.7233C6.47276 12.7214 6.48114 12.7184 6.49391 12.7142C6.51919 12.7061 6.56599 12.6925 6.64162 12.6764C6.8004 12.6425 7.05947 12.6027 7.48434 12.5711C8.39603 12.5032 9.61067 12.5 11.5949 12.5L11.6204 12.5004C11.7834 12.5035 12.5892 12.5186 13.3951 12.3221C14.2028 12.1252 14.9631 11.7691 15.6315 11.2746C16.2983 10.7813 16.8026 10.1526 16.9045 10.0254L16.9206 10.0056L18.993 7.51871C20.4888 5.7237 20.6803 5.55667 20.824 5.45553C21.0634 5.28704 21.3306 5.16191 21.6133 5.08585C21.783 5.04019 22.0339 5 24.3705 5H30.6295C32.9661 5 33.217 5.04019 33.3867 5.08585C33.6694 5.16191 33.9366 5.28704 34.176 5.45553C34.3197 5.55667 34.5112 5.7237 36.0071 7.51871L38.0795 10.0056L38.0955 10.0254C38.1974 10.1525 38.7017 10.7813 39.3686 11.2746C40.0369 11.7691 40.7972 12.1252 41.6049 12.3221C42.4108 12.5186 43.2167 12.5035 43.3796 12.5004L43.4051 12.5C45.3893 12.5 46.604 12.5032 47.5157 12.5711C47.9405 12.6027 48.1996 12.6425 48.3584 12.6764C48.434 12.6925 48.4808 12.7061 48.5061 12.7142C48.5189 12.7184 48.5272 12.7214 48.532 12.7233L48.5395 12.7264C49.0858 12.9761 49.5239 13.4142 49.7737 13.9605L49.7767 13.968C49.7786 13.9728 49.7817 13.9811 49.7858 13.9939C49.7939 14.0192 49.8075 14.066 49.8236 14.1416C49.8575 14.3004 49.8973 14.5595 49.9289 14.9843C49.9968 15.896 50 17.1107 50 19.0949ZM0 19.0949C0 15.2762 0 13.3668 0.679054 11.8816C1.42834 10.2427 2.74266 8.92834 4.38156 8.17906C5.86684 7.5 7.77619 7.5 11.5949 7.5C11.9081 7.5 12.0647 7.5 12.2106 7.46442C12.3722 7.42504 12.5242 7.35381 12.6579 7.25493C12.7787 7.16561 12.8789 7.0453 13.0794 6.80467L15.1518 4.31778C16.4745 2.73066 17.1358 1.9371 17.9464 1.3666C18.6647 0.861112 19.4662 0.485722 20.3143 0.257536C21.2715 0 22.3045 0 24.3705 0H30.6295C32.6955 0 33.7285 0 34.6857 0.257536C35.5339 0.485722 36.3353 0.861112 37.0536 1.3666C37.8643 1.9371 38.5256 2.73066 39.8482 4.31779L41.9206 6.80467C42.1211 7.04529 42.2213 7.16561 42.3421 7.25493C42.4758 7.35381 42.6278 7.42504 42.7894 7.46442C42.9353 7.5 43.0919 7.5 43.4051 7.5C47.2238 7.5 49.1332 7.5 50.6185 8.17906C52.2573 8.92834 53.5717 10.2427 54.321 11.8816C55 13.3668 55 15.2762 55 19.0949V35.5C55 39.7004 55 41.8006 54.1826 43.4049C53.4635 44.8162 52.3162 45.9635 50.9049 46.6826C49.3006 47.5 47.2004 47.5 43 47.5H12C7.79961 47.5 5.69941 47.5 4.09507 46.6826C2.68386 45.9635 1.5365 44.8162 0.817451 43.4049C0 41.8006 0 39.7004 0 35.5V19.0949ZM35 26.25C35 30.3921 31.6421 33.75 27.5 33.75C23.3579 33.75 20 30.3921 20 26.25C20 22.1079 23.3579 18.75 27.5 18.75C31.6421 18.75 35 22.1079 35 26.25ZM40 26.25C40 33.1536 34.4036 38.75 27.5 38.75C20.5964 38.75 15 33.1536 15 26.25C15 19.3464 20.5964 13.75 27.5 13.75C34.4036 13.75 40 19.3464 40 26.25Z" fill="#E0D7F9"/>
</svg>
