<svg width="15" height="16" viewBox="0 0 15 16" fill="none" xmlns="http://www.w3.org/2000/svg">
<path d="M3.33333 12.4167H11.6667C11.8333 12.4167 11.9583 12.3403 12.0417 12.1875C12.125 12.0347 12.1111 11.8889 12 11.75L9.70833 8.6875C9.625 8.57639 9.51389 8.52083 9.375 8.52083C9.23611 8.52083 9.125 8.57639 9.04167 8.6875L6.875 11.5833L5.33333 9.52083C5.25 9.40972 5.13889 9.35417 5 9.35417C4.86111 9.35417 4.75 9.40972 4.66667 9.52083L3 11.75C2.88889 11.8889 2.875 12.0347 2.95833 12.1875C3.04167 12.3403 3.16667 12.4167 3.33333 12.4167ZM1.66667 15.75C1.20833 15.75 0.815833 15.5869 0.489167 15.2608C0.163055 14.9342 0 14.5417 0 14.0833V2.41667C0 1.95833 0.163055 1.56583 0.489167 1.23917C0.815833 0.913055 1.20833 0.75 1.66667 0.75H13.3333C13.7917 0.75 14.1842 0.913055 14.5108 1.23917C14.8369 1.56583 15 1.95833 15 2.41667V14.0833C15 14.5417 14.8369 14.9342 14.5108 15.2608C14.1842 15.5869 13.7917 15.75 13.3333 15.75H1.66667ZM1.66667 14.0833H13.3333V2.41667H1.66667V14.0833Z" fill="#6D6D6D"/>
</svg>
