<svg viewBox="0 0 16 17" fill="currentColor" xmlns="http://www.w3.org/2000/svg">
<path d="M8 12.075C7.86667 12.075 7.74167 12.054 7.625 12.012C7.50833 11.9707 7.4 11.9 7.3 11.8L3.7 8.2C3.51667 8.01667 3.425 7.78333 3.425 7.5C3.425 7.21667 3.51667 6.98333 3.7 6.8C3.88333 6.61667 4.12067 6.52067 4.412 6.512C4.704 6.504 4.94167 6.59167 5.125 6.775L7 8.65V1.5C7 1.21667 7.096 0.979 7.288 0.787C7.47933 0.595667 7.71667 0.5 8 0.5C8.28333 0.5 8.521 0.595667 8.713 0.787C8.90433 0.979 9 1.21667 9 1.5V8.65L10.875 6.775C11.0583 6.59167 11.296 6.504 11.588 6.512C11.8793 6.52067 12.1167 6.61667 12.3 6.8C12.4833 6.98333 12.575 7.21667 12.575 7.5C12.575 7.78333 12.4833 8.01667 12.3 8.2L8.7 11.8C8.6 11.9 8.49167 11.9707 8.375 12.012C8.25833 12.054 8.13333 12.075 8 12.075ZM2 16.5C1.45 16.5 0.979333 16.3043 0.588 15.913C0.196 15.521 0 15.05 0 14.5V12.5C0 12.2167 0.0956668 11.979 0.287 11.787C0.479 11.5957 0.716667 11.5 1 11.5C1.28333 11.5 1.521 11.5957 1.713 11.787C1.90433 11.979 2 12.2167 2 12.5V14.5H14V12.5C14 12.2167 14.096 11.979 14.288 11.787C14.4793 11.5957 14.7167 11.5 15 11.5C15.2833 11.5 15.5207 11.5957 15.712 11.787C15.904 11.979 16 12.2167 16 12.5V14.5C16 15.05 15.8043 15.521 15.413 15.913C15.021 16.3043 14.55 16.5 14 16.5H2Z" />
</svg>
