<svg 
  width="18" 
  height="18" 
  viewBox="0 0 21 21" 
  fill="currentColor" 
  xmlns="http://www.w3.org/2000/svg" 
  preserveAspectRatio="xMidYMid meet"
>
  <path d="M18.422 4.14495H11.0532L9.21098 2.30273H6.60425L10.2887 5.98716H18.422V14.4337L20.0432 16.0548C20.1814 15.7969 20.2643 15.5114 20.2643 15.1982V5.98716C20.2643 4.97394 19.4353 4.14495 18.422 4.14495Z" />
  <path d="M1.34777 0L0 1.33183L1.49115 2.80534C1.34777 3.06981 1.26174 3.36262 1.26174 3.68377L1.25218 15.0185C1.25218 16.0575 2.11246 16.9076 3.16391 16.9076H15.7527L18.9166 20.0341L20.2643 18.7022L1.34777 0ZM3.16391 15.0185V4.46776L13.8409 15.0185H3.16391Z" />
</svg>
