<svg width="15" height="12" viewBox="0 0 15 12" fill="none" xmlns="http://www.w3.org/2000/svg">
<path fill-rule="evenodd" clip-rule="evenodd" d="M10.6844 7.02051C11.6185 7.6546 12.2731 8.51369 12.2731 9.65914V11.7046H14.3185C14.6935 11.7046 15.0004 11.3978 15.0004 11.0228V9.65914C15.0004 8.17278 12.5663 7.29324 10.6844 7.02051Z" fill="#6D6D6D"/>
<path d="M5.45457 6.25044C6.9608 6.25044 8.18184 5.0294 8.18184 3.52317C8.18184 2.01694 6.9608 0.795898 5.45457 0.795898C3.94834 0.795898 2.72729 2.01694 2.72729 3.52317C2.72729 5.0294 3.94834 6.25044 5.45457 6.25044Z" fill="#6D6D6D"/>
<path fill-rule="evenodd" clip-rule="evenodd" d="M9.54549 6.25044C11.0523 6.25044 12.2728 5.02999 12.2728 3.52317C12.2728 2.01635 11.0523 0.795898 9.54549 0.795898C9.22504 0.795898 8.92504 0.86408 8.63867 0.959535C9.20458 1.66181 9.54549 2.55499 9.54549 3.52317C9.54549 4.49135 9.20458 5.38453 8.63867 6.08681C8.92504 6.18226 9.22504 6.25044 9.54549 6.25044Z" fill="#6D6D6D"/>
<path fill-rule="evenodd" clip-rule="evenodd" d="M5.45455 6.93164C3.63409 6.93164 0 7.84528 0 9.65891V11.0225C0 11.3975 0.306818 11.7044 0.681818 11.7044H10.2273C10.6023 11.7044 10.9091 11.3975 10.9091 11.0225V9.65891C10.9091 7.84528 7.275 6.93164 5.45455 6.93164Z" fill="#6D6D6D"/>
</svg>
