<svg width="164" height="20" viewBox="0 0 164 20" fill="none" xmlns="http://www.w3.org/2000/svg">
<path d="M0.914062 0.558594H13.9297V3.42969H3.79883V20H0.914062V0.558594ZM5.43945 8.44727H13.9297V11.3184H5.43945V8.44727ZM17.4844 6.02734C17.4844 5.01562 17.7441 4.09961 18.2637 3.2793C18.7923 2.44987 19.4941 1.78906 20.3691 1.29688C21.2441 0.804688 22.2148 0.558594 23.2812 0.558594H27.834C28.9004 0.558594 29.8711 0.804688 30.7461 1.29688C31.6302 1.78906 32.332 2.44987 32.8516 3.2793C33.3711 4.09961 33.6309 5.01562 33.6309 6.02734V14.5312C33.6309 15.5339 33.3711 16.4499 32.8516 17.2793C32.332 18.1087 31.6302 18.7695 30.7461 19.2617C29.8711 19.7539 28.9004 20 27.834 20H23.2812C22.2148 20 21.2441 19.7539 20.3691 19.2617C19.4941 18.7695 18.7923 18.1087 18.2637 17.2793C17.7441 16.4499 17.4844 15.5339 17.4844 14.5312V6.02734ZM20.3691 14.5449C20.3691 15.2559 20.6517 15.8665 21.2168 16.377C21.791 16.8783 22.4792 17.1289 23.2812 17.1289H27.834C28.6452 17.1289 29.3333 16.8783 29.8984 16.377C30.4635 15.8665 30.7461 15.2559 30.7461 14.5449V6.01367C30.7461 5.30273 30.4635 4.69661 29.8984 4.19531C29.3333 3.6849 28.6452 3.42969 27.834 3.42969H23.2812C22.4792 3.42969 21.791 3.6849 21.2168 4.19531C20.6517 4.69661 20.3691 5.30273 20.3691 6.01367V14.5449ZM37.4727 0.558594H47.7539C48.638 0.558594 49.4401 0.777344 50.1602 1.21484C50.8893 1.64323 51.4681 2.21745 51.8965 2.9375C52.334 3.65755 52.5527 4.45964 52.5527 5.34375V7.28516C52.5527 8.16927 52.3385 8.9668 51.9102 9.67773C51.4909 10.3887 50.9167 10.9538 50.1875 11.373C49.4583 11.7923 48.6426 12.002 47.7402 12.002L53.5371 20H50.0234L44.2266 12.002H41.998V9.13086H47.7539C48.2917 9.13086 48.7474 8.94857 49.1211 8.58398C49.4948 8.21029 49.6816 7.76367 49.6816 7.24414V5.34375C49.6816 4.8151 49.4948 4.36393 49.1211 3.99023C48.7474 3.61654 48.2917 3.42969 47.7539 3.42969H40.3574V20H37.4727V0.558594ZM56.0117 6.02734C56.0117 5.01562 56.2715 4.09961 56.791 3.2793C57.3197 2.44987 58.0215 1.78906 58.8965 1.29688C59.7715 0.804688 60.7422 0.558594 61.8086 0.558594H71.0098V3.42969H61.8086C61.0065 3.42969 60.3184 3.6849 59.7441 4.19531C59.179 4.69661 58.8965 5.30273 58.8965 6.01367V14.5449C58.8965 15.2559 59.179 15.8665 59.7441 16.377C60.3184 16.8783 61.0065 17.1289 61.8086 17.1289H66.3613C67.1725 17.1289 67.8607 16.8783 68.4258 16.377C68.9909 15.8665 69.2734 15.2559 69.2734 14.5449V12.002H63.9961V9.13086H72.1582V14.5312C72.1582 15.5339 71.8984 16.4499 71.3789 17.2793C70.8594 18.1087 70.1576 18.7695 69.2734 19.2617C68.3984 19.7539 67.4277 20 66.3613 20H61.8086C60.7422 20 59.7715 19.7539 58.8965 19.2617C58.0215 18.7695 57.3197 18.1087 56.791 17.2793C56.2715 16.4499 56.0117 15.5339 56.0117 14.5312V6.02734ZM81.3184 0.558594H84.9141L91.873 20H88.7969L86.6777 14.1484H81.25L82.2891 11.2773H85.6387L83.123 4.33203L77.4355 20H74.3594L81.3184 0.558594ZM90.793 0.558594H106.625V3.42969H100.158V20H97.2598V3.42969H90.793V0.558594ZM109.086 0.558594H111.971V8.44727H122.047V0.558594H124.918V20H122.047V11.3184H111.971V20H109.086V0.558594ZM128.746 0.558594H143.826V3.42969H131.631V17.1152H143.826V20H128.746V0.558594ZM133.271 8.44727H143.826V11.3184H133.271V8.44727ZM147.395 0.558594H157.676C158.56 0.558594 159.362 0.777344 160.082 1.21484C160.811 1.64323 161.39 2.21745 161.818 2.9375C162.256 3.65755 162.475 4.45964 162.475 5.34375V7.28516C162.475 8.16927 162.26 8.9668 161.832 9.67773C161.413 10.3887 160.839 10.9538 160.109 11.373C159.38 11.7923 158.564 12.002 157.662 12.002L163.459 20H159.945L154.148 12.002H151.92V9.13086H157.676C158.214 9.13086 158.669 8.94857 159.043 8.58398C159.417 8.21029 159.604 7.76367 159.604 7.24414V5.34375C159.604 4.8151 159.417 4.36393 159.043 3.99023C158.669 3.61654 158.214 3.42969 157.676 3.42969H150.279V20H147.395V0.558594Z" fill="white"/>
</svg>
