<svg width="11" height="14" viewBox="0 0 11 14" fill="currentColor" xmlns="http://www.w3.org/2000/svg">
<path d="M1.375 14C0.996875 14 0.673292 13.8696 0.40425 13.6087C0.13475 13.3473 0 13.0333 0 12.6667V6C0 5.63333 0.13475 5.31933 0.40425 5.058C0.673292 4.79711 0.996875 4.66667 1.375 4.66667H2.0625V3.33333C2.0625 2.41111 2.39777 1.62489 3.06831 0.974667C3.7384 0.324889 4.54896 0 5.5 0C6.45104 0 7.26183 0.324889 7.93237 0.974667C8.60246 1.62489 8.9375 2.41111 8.9375 3.33333V4.66667H9.625C10.0031 4.66667 10.3269 4.79711 10.5964 5.058C10.8655 5.31933 11 5.63333 11 6V12.6667C11 13.0333 10.8655 13.3473 10.5964 13.6087C10.3269 13.8696 10.0031 14 9.625 14H1.375ZM3.4375 4.66667H7.5625V3.33333C7.5625 2.77778 7.36198 2.30556 6.96094 1.91667C6.5599 1.52778 6.07292 1.33333 5.5 1.33333C4.92708 1.33333 4.4401 1.52778 4.03906 1.91667C3.63802 2.30556 3.4375 2.77778 3.4375 3.33333V4.66667ZM1.375 12.6667H9.625V6H1.375V12.6667ZM5.5 10.6667C5.87813 10.6667 6.20194 10.5362 6.47144 10.2753C6.74048 10.014 6.875 9.7 6.875 9.33333C6.875 8.96667 6.74048 8.65267 6.47144 8.39133C6.20194 8.13044 5.87813 8 5.5 8C5.12187 8 4.79829 8.13044 4.52925 8.39133C4.25975 8.65267 4.125 8.96667 4.125 9.33333C4.125 9.7 4.25975 10.014 4.52925 10.2753C4.79829 10.5362 5.12187 10.6667 5.5 10.6667Z"/>
</svg>
