<svg width="14" height="14" viewBox="0 0 14 14" fill="currentColor" xmlns="http://www.w3.org/2000/svg">
<path d="M7 12.6175C6.615 12.6175 6.28542 12.4775 6.01125 12.1975C5.73708 11.9175 5.6 11.585 5.6 11.2C5.6 10.815 5.73708 10.4854 6.01125 10.2112C6.28542 9.93708 6.615 9.8 7 9.8L7.42 9.3975C7.51333 9.30417 7.62125 9.23125 7.74375 9.17875C7.86625 9.12625 7.99167 9.1 8.12 9.1C8.38833 9.1 8.61875 9.19917 8.81125 9.3975C9.00375 9.59583 9.1 9.82917 9.1 10.0975V10.395C9.1 10.6283 9.17583 10.8208 9.3275 10.9725C9.47917 11.1242 9.67167 11.2 9.905 11.2C10.08 11.2 10.2375 11.1475 10.3775 11.0425C10.5175 10.9375 10.6167 10.8033 10.675 10.64L10.885 10.0625C10.99 9.7825 11.1592 9.55208 11.3925 9.37125C11.6258 9.19042 11.8942 9.1 12.1975 9.1C12.3258 8.77333 12.4279 8.435 12.5037 8.085C12.5796 7.735 12.6175 7.37333 12.6175 7C12.6175 5.96167 12.3579 5.01375 11.8388 4.15625C11.3196 3.29875 10.64 2.625 9.8 2.135V2.8C9.8 3.185 9.66292 3.51458 9.38875 3.78875C9.11458 4.06292 8.785 4.2 8.4 4.2H7.7V5.6C7.7 5.79833 7.63292 5.96458 7.49875 6.09875C7.36458 6.23292 7.19833 6.3 7 6.3H6.3V7.49C6.3 7.74667 6.2125 7.9625 6.0375 8.1375C5.8625 8.3125 5.64667 8.4 5.39 8.4C5.22667 8.4 5.07792 8.365 4.94375 8.295C4.80958 8.225 4.70167 8.12583 4.62 7.9975L3.5 6.3H2.8V7C2.8 7.36167 2.6775 7.67083 2.4325 7.9275C2.1875 8.18417 1.89583 8.33583 1.5575 8.3825C1.86083 9.59583 2.51708 10.605 3.52625 11.41C4.53542 12.215 5.69333 12.6175 7 12.6175ZM8.4 8.4C8.20167 8.4 8.03542 8.33292 7.90125 8.19875C7.76708 8.06458 7.7 7.89833 7.7 7.7C7.7 7.50167 7.76708 7.33542 7.90125 7.20125C8.03542 7.06708 8.20167 7 8.4 7H9.1C9.29833 7 9.46458 7.06708 9.59875 7.20125C9.73292 7.33542 9.8 7.50167 9.8 7.7C9.8 7.89833 9.73292 8.06458 9.59875 8.19875C9.46458 8.33292 9.29833 8.4 9.1 8.4H8.4ZM10.0275 6.3C9.79417 6.3 9.61042 6.20958 9.47625 6.02875C9.34208 5.84792 9.31 5.64667 9.38 5.425L9.6425 4.655C9.68917 4.515 9.77083 4.40417 9.8875 4.3225C10.0042 4.24083 10.1325 4.2 10.2725 4.2C10.5058 4.2 10.6896 4.29042 10.8238 4.47125C10.9579 4.65208 10.99 4.85333 10.92 5.075L10.6575 5.845C10.6108 5.985 10.5292 6.09583 10.4125 6.1775C10.2958 6.25917 10.1675 6.3 10.0275 6.3ZM7 14C6.03167 14 5.12167 13.8162 4.27 13.4487C3.41833 13.0812 2.6775 12.5825 2.0475 11.9525C1.4175 11.3225 0.91875 10.5817 0.55125 9.73C0.18375 8.87833 0 7.96833 0 7C0 6.03167 0.18375 5.12167 0.55125 4.27C0.91875 3.41833 1.4175 2.6775 2.0475 2.0475C2.6775 1.4175 3.41833 0.91875 4.27 0.55125C5.12167 0.18375 6.03167 0 7 0C7.96833 0 8.87833 0.18375 9.73 0.55125C10.5817 0.91875 11.3225 1.4175 11.9525 2.0475C12.5825 2.6775 13.0813 3.41833 13.4488 4.27C13.8163 5.12167 14 6.03167 14 7C14 7.96833 13.8163 8.87833 13.4488 9.73C13.0813 10.5817 12.5825 11.3225 11.9525 11.9525C11.3225 12.5825 10.5817 13.0812 9.73 13.4487C8.87833 13.8162 7.96833 14 7 14Z"/>
</svg>
