<svg width="16" height="15" viewBox="0 0 16 15" fill="none" xmlns="http://www.w3.org/2000/svg">
<path opacity="0.8" fill-rule="evenodd" clip-rule="evenodd" d="M8.00018 1.72716L7.72919 3.25484C7.36563 5.30439 5.63568 6.91077 3.42847 7.24836L1.78327 7.5L3.42847 7.75163C5.63568 8.08922 7.36563 9.6956 7.72919 11.7451L8.00018 13.2728L8.27117 11.7451C8.63473 9.6956 10.3647 8.08922 12.5719 7.75163L14.2171 7.5L12.5719 7.24836C10.3647 6.91077 8.63473 5.30439 8.27117 3.25484L8.00018 1.72716ZM7.47803 3.21643L7.8746 0.980789L8.12576 0.980789L8.52233 3.21643C8.86816 5.166 10.5137 6.69402 12.6133 7.01514L15.0209 7.38339V7.61661L12.6133 7.98485C10.5137 8.30598 8.86816 9.834 8.52233 11.7836L8.12576 14.0192H7.8746L7.47803 11.7836C7.1322 9.834 5.48664 8.30598 3.3871 7.98485L0.979492 7.61661L0.979492 7.38339L3.3871 7.01514C5.48664 6.69402 7.1322 5.166 7.47803 3.21643Z" fill="white"/>
</svg>
