<svg viewBox="0 0 16 19" fill="currentColor" xmlns="http://www.w3.org/2000/svg">
<path d="M3 18.5C2.45 18.5 1.97933 18.3043 1.588 17.913C1.196 17.521 1 17.05 1 16.5V3.5C0.716667 3.5 0.479 3.40433 0.287 3.213C0.0956668 3.021 0 2.78333 0 2.5C0 2.21667 0.0956668 1.979 0.287 1.787C0.479 1.59567 0.716667 1.5 1 1.5H5C5 1.21667 5.096 0.979 5.288 0.787C5.47933 0.595667 5.71667 0.5 6 0.5H10C10.2833 0.5 10.521 0.595667 10.713 0.787C10.9043 0.979 11 1.21667 11 1.5H15C15.2833 1.5 15.5207 1.59567 15.712 1.787C15.904 1.979 16 2.21667 16 2.5C16 2.78333 15.904 3.021 15.712 3.213C15.5207 3.40433 15.2833 3.5 15 3.5V16.5C15 17.05 14.8043 17.521 14.413 17.913C14.021 18.3043 13.55 18.5 13 18.5H3ZM3 3.5V16.5H13V3.5H3ZM5 13.5C5 13.7833 5.096 14.0207 5.288 14.212C5.47933 14.404 5.71667 14.5 6 14.5C6.28333 14.5 6.521 14.404 6.713 14.212C6.90433 14.0207 7 13.7833 7 13.5V6.5C7 6.21667 6.90433 5.979 6.713 5.787C6.521 5.59567 6.28333 5.5 6 5.5C5.71667 5.5 5.47933 5.59567 5.288 5.787C5.096 5.979 5 6.21667 5 6.5V13.5ZM9 13.5C9 13.7833 9.096 14.0207 9.288 14.212C9.47933 14.404 9.71667 14.5 10 14.5C10.2833 14.5 10.521 14.404 10.713 14.212C10.9043 14.0207 11 13.7833 11 13.5V6.5C11 6.21667 10.9043 5.979 10.713 5.787C10.521 5.59567 10.2833 5.5 10 5.5C9.71667 5.5 9.47933 5.59567 9.288 5.787C9.096 5.979 9 6.21667 9 6.5V13.5Z" />
</svg>
