<svg  viewBox="0 0 95 21" fill="none" xmlns="http://www.w3.org/2000/svg">
<path d="M1.09375 4.89062H8.53125V6.53125H2.74219V16H1.09375V4.89062ZM3.67969 9.39844H8.53125V11.0391H3.67969V9.39844ZM10.5625 8.01562C10.5625 7.4375 10.7109 6.91406 11.0078 6.44531C11.3099 5.97135 11.7109 5.59375 12.2109 5.3125C12.7109 5.03125 13.2656 4.89062 13.875 4.89062H16.4766C17.0859 4.89062 17.6406 5.03125 18.1406 5.3125C18.6458 5.59375 19.0469 5.97135 19.3438 6.44531C19.6406 6.91406 19.7891 7.4375 19.7891 8.01562V12.875C19.7891 13.4479 19.6406 13.9714 19.3438 14.4453C19.0469 14.9193 18.6458 15.2969 18.1406 15.5781C17.6406 15.8594 17.0859 16 16.4766 16H13.875C13.2656 16 12.7109 15.8594 12.2109 15.5781C11.7109 15.2969 11.3099 14.9193 11.0078 14.4453C10.7109 13.9714 10.5625 13.4479 10.5625 12.875V8.01562ZM12.2109 12.8828C12.2109 13.2891 12.3724 13.638 12.6953 13.9297C13.0234 14.2161 13.4167 14.3594 13.875 14.3594H16.4766C16.9401 14.3594 17.3333 14.2161 17.6562 13.9297C17.9792 13.638 18.1406 13.2891 18.1406 12.8828V8.00781C18.1406 7.60156 17.9792 7.25521 17.6562 6.96875C17.3333 6.67708 16.9401 6.53125 16.4766 6.53125H13.875C13.4167 6.53125 13.0234 6.67708 12.6953 6.96875C12.3724 7.25521 12.2109 7.60156 12.2109 8.00781V12.8828ZM21.9844 4.89062H27.8594C28.3646 4.89062 28.8229 5.01562 29.2344 5.26562C29.651 5.51042 29.9818 5.83854 30.2266 6.25C30.4766 6.66146 30.6016 7.11979 30.6016 7.625V8.73438C30.6016 9.23958 30.4792 9.69531 30.2344 10.1016C29.9948 10.5078 29.6667 10.8307 29.25 11.0703C28.8333 11.3099 28.3672 11.4297 27.8516 11.4297L31.1641 16H29.1562L25.8438 11.4297H24.5703V9.78906H27.8594C28.1667 9.78906 28.4271 9.6849 28.6406 9.47656C28.8542 9.26302 28.9609 9.00781 28.9609 8.71094V7.625C28.9609 7.32292 28.8542 7.0651 28.6406 6.85156C28.4271 6.63802 28.1667 6.53125 27.8594 6.53125H23.6328V16H21.9844V4.89062ZM32.5781 8.01562C32.5781 7.4375 32.7266 6.91406 33.0234 6.44531C33.3255 5.97135 33.7266 5.59375 34.2266 5.3125C34.7266 5.03125 35.2812 4.89062 35.8906 4.89062H41.1484V6.53125H35.8906C35.4323 6.53125 35.0391 6.67708 34.7109 6.96875C34.388 7.25521 34.2266 7.60156 34.2266 8.00781V12.8828C34.2266 13.2891 34.388 13.638 34.7109 13.9297C35.0391 14.2161 35.4323 14.3594 35.8906 14.3594H38.4922C38.9557 14.3594 39.349 14.2161 39.6719 13.9297C39.9948 13.638 40.1562 13.2891 40.1562 12.8828V11.4297H37.1406V9.78906H41.8047V12.875C41.8047 13.4479 41.6562 13.9714 41.3594 14.4453C41.0625 14.9193 40.6615 15.2969 40.1562 15.5781C39.6562 15.8594 39.1016 16 38.4922 16H35.8906C35.2812 16 34.7266 15.8594 34.2266 15.5781C33.7266 15.2969 33.3255 14.9193 33.0234 14.4453C32.7266 13.9714 32.5781 13.4479 32.5781 12.875V8.01562ZM47.0391 4.89062H49.0938L53.0703 16H51.3125L50.1016 12.6562H47L47.5938 11.0156H49.5078L48.0703 7.04688L44.8203 16H43.0625L47.0391 4.89062ZM52.4531 4.89062H61.5V6.53125H57.8047V16H56.1484V6.53125H52.4531V4.89062ZM62.9062 4.89062H64.5547V9.39844H70.3125V4.89062H71.9531V16H70.3125V11.0391H64.5547V16H62.9062V4.89062ZM74.1406 4.89062H82.7578V6.53125H75.7891V14.3516H82.7578V16H74.1406V4.89062ZM76.7266 9.39844H82.7578V11.0391H76.7266V9.39844ZM84.7969 4.89062H90.6719C91.1771 4.89062 91.6354 5.01562 92.0469 5.26562C92.4635 5.51042 92.7943 5.83854 93.0391 6.25C93.2891 6.66146 93.4141 7.11979 93.4141 7.625V8.73438C93.4141 9.23958 93.2917 9.69531 93.0469 10.1016C92.8073 10.5078 92.4792 10.8307 92.0625 11.0703C91.6458 11.3099 91.1797 11.4297 90.6641 11.4297L93.9766 16H91.9688L88.6562 11.4297H87.3828V9.78906H90.6719C90.9792 9.78906 91.2396 9.6849 91.4531 9.47656C91.6667 9.26302 91.7734 9.00781 91.7734 8.71094V7.625C91.7734 7.32292 91.6667 7.0651 91.4531 6.85156C91.2396 6.63802 90.9792 6.53125 90.6719 6.53125H86.4453V16H84.7969V4.89062Z" />
</svg>
